<svg xmlns="http://www.w3.org/2000/svg" width="128" height="128" viewBox="0 0 128 128">
  <rect x="8" y="8" width="112" height="112" rx="24" fill="#e9f1f8"/>
  <rect x="8" y="8" width="112" height="112" rx="24" fill="none" stroke="#c8d7e6" stroke-width="2"/>
  <g transform="translate(28 26) scale(3)" fill="none" stroke="#2f3339" stroke-width="1.6" stroke-linecap="round" stroke-linejoin="round">
    <path d="M13.4 2H6a2 2 0 0 0-2 2v16a2 2 0 0 0 2 2h12a2 2 0 0 0 2-2v-7.4"/>
    <path d="M2 6h4"/>
    <path d="M2 10h4"/>
    <path d="M2 14h4"/>
    <path d="M2 18h4"/>
    <path d="M21.378 5.626a1 1 0 1 0-3.004-3.004l-5.01 5.012a2 2 0 0 0-.506.854l-.837 2.87a.5.5 0 0 0 .62.62l2.87-.837a2 2 0 0 0 .854-.506z"/>
  </g>
</svg>
